<?xml version="1.0" encoding="UTF-8"?>
<!DOCTYPE score-partwise PUBLIC "-//Recordare//DTD MusicXML 4.0 Partwise//EN" "http://www.musicxml.org/dtds/partwise.dtd">
<score-partwise version="4.0">
    <work>
        <work-title>Bass TAB</work-title>
    </work>
    <identification>
        <encoding>
            <software>MuseScore 4.0.2</software>
            <encoding-date>2023-06-20</encoding-date>
            <supports element="accidental" type="yes"/>
            <supports element="beam" type="yes"/>
            <supports element="print" attribute="new-page" type="no"/>
            <supports element="print" attribute="new-system" type="no"/>
            <supports element="stem" type="yes"/>
        </encoding>
    </identification>
    <part-list>
        <score-part id="P1">
            <part-name>베이스 기타 </part-name>
            <part-abbreviation>B. Guit.</part-abbreviation>
            <score-instrument id="P1-I1">
                <instrument-name>베이스 기타 (TAB)</instrument-name>
            </score-instrument>
            <midi-device id="P1-I1" port="1"/>
            <midi-instrument id="P1-I1">
                <midi-channel>4</midi-channel>
                <midi-program>35</midi-program>
                <volume>78.7402</volume>
                <pan>0</pan>
            </midi-instrument>
        </score-part>
    </part-list>
    <part id="P1">
        <measure number="1">
            <attributes>
                <divisions>4</divisions>
                <key>
                    <fifths>4</fifths>
                </key>
                <time>
                    <beats>4</beats>
                    <beat-type>4</beat-type>
                </time>
                <clef>
                    <sign>TAB</sign>
                </clef>
                <staff-details>
                    <staff-lines>4</staff-lines>
                    <staff-tuning line="1">
                        <tuning-step>E</tuning-step>
                        <tuning-octave>2</tuning-octave>
                    </staff-tuning>
                    <staff-tuning line="2">
                        <tuning-step>A</tuning-step>
                        <tuning-octave>2</tuning-octave>
                    </staff-tuning>
                    <staff-tuning line="3">
                        <tuning-step>D</tuning-step>
                        <tuning-octave>3</tuning-octave>
                    </staff-tuning>
                    <staff-tuning line="4">
                        <tuning-step>G</tuning-step>
                        <tuning-octave>3</tuning-octave>
                    </staff-tuning>
                </staff-details>
                <transpose>
                    <diatonic>0</diatonic>
                    <chromatic>0</chromatic>
                    <octave-change>-1</octave-change>
                </transpose>
            </attributes>
            <note>
                <rest/>
                <duration>16</duration>
                <type>whole</type>
                <voice>1</voice>
            </note>
        </measure>
        <measure number="2">
            <note>
                <pitch>
                    <step>C</step>
                    <octave>3</octave>
                    <alter>1</alter>
                </pitch>
                <duration>2</duration>
                <type>eighth</type>
                <voice>1</voice>
            </note>
            <note>
                <pitch>
                    <step>C</step>
                    <octave>3</octave>
                    <alter>1</alter>
                </pitch>
                <duration>2</duration>
                <type>eighth</type>
                <voice>1</voice>
            </note>
            <note>
                <rest/>
                <duration>4</duration>
                <type>quarter</type>
                <voice>1</voice>
            </note>
            <note>
                <pitch>
                    <step>G</step>
                    <octave>2</octave>
                    <alter>1</alter>
                </pitch>
                <duration>2</duration>
                <type>eighth</type>
                <voice>1</voice>
            </note>
            <note>
                <pitch>
                    <step>G</step>
                    <octave>2</octave>
                    <alter>1</alter>
                </pitch>
                <duration>2</duration>
                <type>eighth</type>
                <voice>1</voice>
            </note>
            <note>
                <rest/>
                <duration>2</duration>
                <type>eighth</type>
                <voice>1</voice>
            </note>
            <note>
                <pitch>
                    <step>A</step>
                    <octave>2</octave>
                </pitch>
                <duration>2</duration>
                <type>eighth</type>
                <voice>1</voice>
                <tie type="start"/>
            </note>
        </measure>
        <measure number="3">
            <note>
                <pitch>
                    <step>A</step>
                    <octave>2</octave>
                </pitch>
                <duration>8</duration>
                <type>half</type>
                <voice>1</voice>
                <tie type="stop"/>
                <tie type="start"/>
            </note>
            <note>
                <pitch>
                    <step>A</step>
                    <octave>2</octave>
                </pitch>
                <duration>2</duration>
                <type>eighth</type>
                <voice>1</voice>
                <tie type="stop"/>
            </note>
            <note>
                <pitch>
                    <step>A</step>
                    <octave>2</octave>
                </pitch>
                <duration>2</duration>
                <type>eighth</type>
                <voice>1</voice>
            </note>
            <note>
                <pitch>
                    <step>B</step>
                    <octave>2</octave>
                </pitch>
                <duration>4</duration>
                <type>quarter</type>
                <voice>1</voice>
            </note>
        </measure>
        <measure number="4">
            <note>
                <pitch>
                    <step>C</step>
                    <octave>3</octave>
                    <alter>1</alter>
                </pitch>
                <duration>2</duration>
                <type>eighth</type>
                <voice>1</voice>
            </note>
            <note>
                <pitch>
                    <step>C</step>
                    <octave>3</octave>
                    <alter>1</alter>
                </pitch>
                <duration>2</duration>
                <type>eighth</type>
                <voice>1</voice>
            </note>
            <note>
                <rest/>
                <duration>4</duration>
                <type>quarter</type>
                <voice>1</voice>
            </note>
            <note>
                <pitch>
                    <step>G</step>
                    <octave>2</octave>
                    <alter>1</alter>
                </pitch>
                <duration>2</duration>
                <type>eighth</type>
                <voice>1</voice>
            </note>
            <note>
                <pitch>
                    <step>G</step>
                    <octave>2</octave>
                    <alter>1</alter>
                </pitch>
                <duration>2</duration>
                <type>eighth</type>
                <voice>1</voice>
            </note>
            <note>
                <rest/>
                <duration>2</duration>
                <type>eighth</type>
                <voice>1</voice>
            </note>
            <note>
                <pitch>
                    <step>A</step>
                    <octave>2</octave>
                </pitch>
                <duration>2</duration>
                <type>eighth</type>
                <voice>1</voice>
                <tie type="start"/>
            </note>
        </measure>
        <measure number="5">
            <note>
                <pitch>
                    <step>A</step>
                    <octave>2</octave>
                </pitch>
                <duration>8</duration>
                <type>half</type>
                <voice>1</voice>
                <tie type="stop"/>
                <tie type="start"/>
            </note>
            <note>
                <pitch>
                    <step>A</step>
                    <octave>2</octave>
                </pitch>
                <duration>2</duration>
                <type>eighth</type>
                <voice>1</voice>
                <tie type="stop"/>
            </note>
            <note>
                <pitch>
                    <step>A</step>
                    <octave>2</octave>
                </pitch>
                <duration>2</duration>
                <type>eighth</type>
                <voice>1</voice>
            </note>
            <note>
                <pitch>
                    <step>B</step>
                    <octave>2</octave>
                </pitch>
                <duration>4</duration>
                <type>quarter</type>
                <voice>1</voice>
            </note>
        </measure>
        <measure number="6">
            <note>
                <pitch>
                    <step>C</step>
                    <octave>3</octave>
                    <alter>1</alter>
                </pitch>
                <duration>2</duration>
                <type>eighth</type>
                <voice>1</voice>
            </note>
            <note>
                <pitch>
                    <step>C</step>
                    <octave>3</octave>
                    <alter>1</alter>
                </pitch>
                <duration>2</duration>
                <type>eighth</type>
                <voice>1</voice>
            </note>
            <note>
                <rest/>
                <duration>4</duration>
                <type>quarter</type>
                <voice>1</voice>
            </note>
            <note>
                <pitch>
                    <step>G</step>
                    <octave>2</octave>
                    <alter>1</alter>
                </pitch>
                <duration>2</duration>
                <type>eighth</type>
                <voice>1</voice>
            </note>
            <note>
                <pitch>
                    <step>G</step>
                    <octave>2</octave>
                    <alter>1</alter>
                </pitch>
                <duration>2</duration>
                <type>eighth</type>
                <voice>1</voice>
            </note>
            <note>
                <rest/>
                <duration>2</duration>
                <type>eighth</type>
                <voice>1</voice>
            </note>
            <note>
                <pitch>
                    <step>F</step>
                    <octave>2</octave>
                    <alter>1</alter>
                </pitch>
                <duration>2</duration>
                <type>eighth</type>
                <voice>1</voice>
                <tie type="start"/>
            </note>
        </measure>
        <measure number="7">
            <note>
                <pitch>
                    <step>F</step>
                    <octave>2</octave>
                    <alter>1</alter>
                </pitch>
                <duration>8</duration>
                <type>half</type>
                <voice>1</voice>
                <tie type="stop"/>
                <tie type="start"/>
            </note>
            <note>
                <pitch>
                    <step>F</step>
                    <octave>2</octave>
                    <alter>1</alter>
                </pitch>
                <duration>2</duration>
                <type>eighth</type>
                <voice>1</voice>
                <tie type="stop"/>
            </note>
            <note>
                <pitch>
                    <step>E</step>
                    <octave>2</octave>
                </pitch>
                <duration>2</duration>
                <type>eighth</type>
                <voice>1</voice>
            </note>
            <note>
                <pitch>
                    <step>B</step>
                    <octave>2</octave>
                </pitch>
                <duration>4</duration>
                <type>quarter</type>
                <voice>1</voice>
            </note>
        </measure>
        <measure number="8">
            <note>
                <pitch>
                    <step>C</step>
                    <octave>3</octave>
                    <alter>1</alter>
                </pitch>
                <duration>2</duration>
                <type>eighth</type>
                <voice>1</voice>
            </note>
            <note>
                <pitch>
                    <step>C</step>
                    <octave>3</octave>
                    <alter>1</alter>
                </pitch>
                <duration>2</duration>
                <type>eighth</type>
                <voice>1</voice>
            </note>
            <note>
                <rest/>
                <duration>4</duration>
                <type>quarter</type>
                <voice>1</voice>
            </note>
            <note>
                <pitch>
                    <step>G</step>
                    <octave>2</octave>
                    <alter>1</alter>
                </pitch>
                <duration>2</duration>
                <type>eighth</type>
                <voice>1</voice>
            </note>
            <note>
                <pitch>
                    <step>G</step>
                    <octave>2</octave>
                    <alter>1</alter>
                </pitch>
                <duration>2</duration>
                <type>eighth</type>
                <voice>1</voice>
            </note>
            <note>
                <rest/>
                <duration>2</duration>
                <type>eighth</type>
                <voice>1</voice>
            </note>
            <note>
                <pitch>
                    <step>A</step>
                    <octave>2</octave>
                </pitch>
                <duration>2</duration>
                <type>eighth</type>
                <voice>1</voice>
                <tie type="start"/>
            </note>
        </measure>
        <measure number="9">
            <note>
                <pitch>
                    <step>A</step>
                    <octave>2</octave>
                </pitch>
                <duration>4</duration>
                <type>quarter</type>
                <voice>1</voice>
                <tie type="stop"/>
            </note>
            <note>
                <pitch>
                    <step>A</step>
                    <octave>3</octave>
                </pitch>
                <duration>4</duration>
                <type>quarter</type>
                <voice>1</voice>
            </note>
            <note>
                <rest/>
                <duration>2</duration>
                <type>eighth</type>
                <voice>1</voice>
            </note>
            <note>
                <pitch>
                    <step>G</step>
                    <octave>3</octave>
                    <alter>1</alter>
                </pitch>
                <duration>1</duration>
                <type>16th</type>
                <voice>1</voice>
            </note>
            <note>
                <pitch>
                    <step>A</step>
                    <octave>3</octave>
                </pitch>
                <duration>1</duration>
                <type>16th</type>
                <voice>1</voice>
            </note>
            <note>
                <pitch>
                    <step>G</step>
                    <octave>3</octave>
                    <alter>1</alter>
                </pitch>
                <duration>1</duration>
                <type>16th</type>
                <voice>1</voice>
            </note>
            <note>
                <pitch>
                    <step>E</step>
                    <octave>3</octave>
                </pitch>
                <duration>1</duration>
                <type>16th</type>
                <voice>1</voice>
            </note>
            <note>
                <pitch>
                    <step>C</step>
                    <octave>3</octave>
                    <alter>1</alter>
                </pitch>
                <duration>1</duration>
                <type>16th</type>
                <voice>1</voice>
            </note>
            <note>
                <pitch>
                    <step>B</step>
                    <octave>2</octave>
                </pitch>
                <duration>1</duration>
                <type>16th</type>
                <voice>1</voice>
            </note>
        </measure>
        <measure number="10">
            <note>
                <pitch>
                    <step>C</step>
                    <octave>3</octave>
                    <alter>1</alter>
                </pitch>
                <duration>2</duration>
                <type>eighth</type>
                <voice>1</voice>
            </note>
            <note>
                <pitch>
                    <step>C</step>
                    <octave>3</octave>
                    <alter>1</alter>
                </pitch>
                <duration>2</duration>
                <type>eighth</type>
                <voice>1</voice>
            </note>
            <note>
                <rest/>
                <duration>4</duration>
                <type>quarter</type>
                <voice>1</voice>
            </note>
            <note>
                <pitch>
                    <step>G</step>
                    <octave>2</octave>
                    <alter>1</alter>
                </pitch>
                <duration>2</duration>
                <type>eighth</type>
                <voice>1</voice>
            </note>
            <note>
                <pitch>
                    <step>G</step>
                    <octave>2</octave>
                    <alter>1</alter>
                </pitch>
                <duration>2</duration>
                <type>eighth</type>
                <voice>1</voice>
            </note>
            <note>
                <rest/>
                <duration>2</duration>
                <type>eighth</type>
                <voice>1</voice>
            </note>
            <note>
                <pitch>
                    <step>F</step>
                    <octave>2</octave>
                    <alter>1</alter>
                </pitch>
                <duration>2</duration>
                <type>eighth</type>
                <voice>1</voice>
                <tie type="start"/>
            </note>
        </measure>
        <measure number="11">
            <note>
                <pitch>
                    <step>F</step>
                    <octave>2</octave>
                    <alter>1</alter>
                </pitch>
                <duration>8</duration>
                <type>half</type>
                <voice>1</voice>
                <tie type="stop"/>
                <tie type="start"/>
            </note>
            <note>
                <pitch>
                    <step>F</step>
                    <octave>2</octave>
                    <alter>1</alter>
                </pitch>
                <duration>2</duration>
                <type>eighth</type>
                <voice>1</voice>
                <tie type="stop"/>
            </note>
            <note>
                <pitch>
                    <step>E</step>
                    <octave>2</octave>
                </pitch>
                <duration>2</duration>
                <type>eighth</type>
                <voice>1</voice>
            </note>
            <note>
                <pitch>
                    <step>B</step>
                    <octave>2</octave>
                </pitch>
                <duration>4</duration>
                <type>quarter</type>
                <voice>1</voice>
            </note>
        </measure>
        <measure number="12">
            <note>
                <pitch>
                    <step>C</step>
                    <octave>3</octave>
                    <alter>1</alter>
                </pitch>
                <duration>2</duration>
                <type>eighth</type>
                <voice>1</voice>
            </note>
            <note>
                <pitch>
                    <step>C</step>
                    <octave>3</octave>
                    <alter>1</alter>
                </pitch>
                <duration>2</duration>
                <type>eighth</type>
                <voice>1</voice>
            </note>
            <note>
                <rest/>
                <duration>4</duration>
                <type>quarter</type>
                <voice>1</voice>
            </note>
            <note>
                <pitch>
                    <step>G</step>
                    <octave>2</octave>
                    <alter>1</alter>
                </pitch>
                <duration>2</duration>
                <type>eighth</type>
                <voice>1</voice>
            </note>
            <note>
                <pitch>
                    <step>G</step>
                    <octave>2</octave>
                    <alter>1</alter>
                </pitch>
                <duration>2</duration>
                <type>eighth</type>
                <voice>1</voice>
            </note>
            <note>
                <rest/>
                <duration>2</duration>
                <type>eighth</type>
                <voice>1</voice>
            </note>
            <note>
                <pitch>
                    <step>A</step>
                    <octave>2</octave>
                </pitch>
                <duration>2</duration>
                <type>eighth</type>
                <voice>1</voice>
                <tie type="start"/>
            </note>
        </measure>
        <measure number="13">
            <note>
                <pitch>
                    <step>A</step>
                    <octave>2</octave>
                </pitch>
                <duration>4</duration>
                <type>quarter</type>
                <voice>1</voice>
                <tie type="stop"/>
            </note>
            <note>
                <pitch>
                    <step>A</step>
                    <octave>3</octave>
                </pitch>
                <duration>4</duration>
                <type>quarter</type>
                <voice>1</voice>
            </note>
            <note>
                <rest/>
                <duration>2</duration>
                <type>eighth</type>
                <voice>1</voice>
            </note>
            <note>
                <pitch>
                    <step>G</step>
                    <octave>3</octave>
                    <alter>1</alter>
                </pitch>
                <duration>1</duration>
                <type>16th</type>
                <voice>1</voice>
            </note>
            <note>
                <pitch>
                    <step>A</step>
                    <octave>3</octave>
                </pitch>
                <duration>1</duration>
                <type>16th</type>
                <voice>1</voice>
            </note>
            <note>
                <pitch>
                    <step>G</step>
                    <octave>3</octave>
                    <alter>1</alter>
                </pitch>
                <duration>1</duration>
                <type>16th</type>
                <voice>1</voice>
            </note>
            <note>
                <pitch>
                    <step>E</step>
                    <octave>3</octave>
                </pitch>
                <duration>1</duration>
                <type>16th</type>
                <voice>1</voice>
            </note>
            <note>
                <pitch>
                    <step>C</step>
                    <octave>3</octave>
                    <alter>1</alter>
                </pitch>
                <duration>1</duration>
                <type>16th</type>
                <voice>1</voice>
            </note>
            <note>
                <pitch>
                    <step>B</step>
                    <octave>2</octave>
                </pitch>
                <duration>1</duration>
                <type>16th</type>
                <voice>1</voice>
            </note>
        </measure>
        <measure number="14">
            <note>
                <pitch>
                    <step>C</step>
                    <octave>3</octave>
                    <alter>1</alter>
                </pitch>
                <duration>2</duration>
                <type>eighth</type>
                <voice>1</voice>
            </note>
            <note>
                <pitch>
                    <step>C</step>
                    <octave>3</octave>
                    <alter>1</alter>
                </pitch>
                <duration>2</duration>
                <type>eighth</type>
                <voice>1</voice>
            </note>
            <note>
                <rest/>
                <duration>4</duration>
                <type>quarter</type>
                <voice>1</voice>
            </note>
            <note>
                <pitch>
                    <step>G</step>
                    <octave>2</octave>
                    <alter>1</alter>
                </pitch>
                <duration>2</duration>
                <type>eighth</type>
                <voice>1</voice>
            </note>
            <note>
                <pitch>
                    <step>G</step>
                    <octave>2</octave>
                    <alter>1</alter>
                </pitch>
                <duration>2</duration>
                <type>eighth</type>
                <voice>1</voice>
            </note>
            <note>
                <rest/>
                <duration>2</duration>
                <type>eighth</type>
                <voice>1</voice>
            </note>
            <note>
                <pitch>
                    <step>F</step>
                    <octave>2</octave>
                    <alter>1</alter>
                </pitch>
                <duration>2</duration>
                <type>eighth</type>
                <voice>1</voice>
                <tie type="start"/>
            </note>
        </measure>
        <measure number="15">
            <note>
                <pitch>
                    <step>F</step>
                    <octave>2</octave>
                    <alter>1</alter>
                </pitch>
                <duration>8</duration>
                <type>half</type>
                <voice>1</voice>
                <tie type="stop"/>
                <tie type="start"/>
            </note>
            <note>
                <pitch>
                    <step>F</step>
                    <octave>2</octave>
                    <alter>1</alter>
                </pitch>
                <duration>2</duration>
                <type>eighth</type>
                <voice>1</voice>
                <tie type="stop"/>
            </note>
            <note>
                <pitch>
                    <step>E</step>
                    <octave>2</octave>
                </pitch>
                <duration>2</duration>
                <type>eighth</type>
                <voice>1</voice>
            </note>
            <note>
                <pitch>
                    <step>B</step>
                    <octave>2</octave>
                </pitch>
                <duration>4</duration>
                <type>quarter</type>
                <voice>1</voice>
            </note>
        </measure>
        <measure number="16">
            <note>
                <pitch>
                    <step>C</step>
                    <octave>3</octave>
                    <alter>1</alter>
                </pitch>
                <duration>2</duration>
                <type>eighth</type>
                <voice>1</voice>
            </note>
            <note>
                <pitch>
                    <step>C</step>
                    <octave>3</octave>
                    <alter>1</alter>
                </pitch>
                <duration>2</duration>
                <type>eighth</type>
                <voice>1</voice>
            </note>
            <note>
                <rest/>
                <duration>4</duration>
                <type>quarter</type>
                <voice>1</voice>
            </note>
            <note>
                <pitch>
                    <step>G</step>
                    <octave>2</octave>
                    <alter>1</alter>
                </pitch>
                <duration>2</duration>
                <type>eighth</type>
                <voice>1</voice>
            </note>
            <note>
                <pitch>
                    <step>G</step>
                    <octave>2</octave>
                    <alter>1</alter>
                </pitch>
                <duration>2</duration>
                <type>eighth</type>
                <voice>1</voice>
            </note>
            <note>
                <rest/>
                <duration>2</duration>
                <type>eighth</type>
                <voice>1</voice>
            </note>
            <note>
                <pitch>
                    <step>A</step>
                    <octave>2</octave>
                </pitch>
                <duration>2</duration>
                <type>eighth</type>
                <voice>1</voice>
                <tie type="start"/>
            </note>
        </measure>
        <measure number="17">
            <note>
                <pitch>
                    <step>A</step>
                    <octave>2</octave>
                </pitch>
                <duration>4</duration>
                <type>quarter</type>
                <voice>1</voice>
                <tie type="stop"/>
            </note>
            <note>
                <pitch>
                    <step>A</step>
                    <octave>3</octave>
                </pitch>
                <duration>4</duration>
                <type>quarter</type>
                <voice>1</voice>
            </note>
            <note>
                <rest/>
                <duration>2</duration>
                <type>eighth</type>
                <voice>1</voice>
            </note>
            <note>
                <pitch>
                    <step>G</step>
                    <octave>3</octave>
                    <alter>1</alter>
                </pitch>
                <duration>1</duration>
                <type>16th</type>
                <voice>1</voice>
            </note>
            <note>
                <pitch>
                    <step>A</step>
                    <octave>3</octave>
                </pitch>
                <duration>1</duration>
                <type>16th</type>
                <voice>1</voice>
            </note>
            <note>
                <pitch>
                    <step>G</step>
                    <octave>3</octave>
                    <alter>1</alter>
                </pitch>
                <duration>1</duration>
                <type>16th</type>
                <voice>1</voice>
            </note>
            <note>
                <pitch>
                    <step>E</step>
                    <octave>3</octave>
                </pitch>
                <duration>1</duration>
                <type>16th</type>
                <voice>1</voice>
            </note>
            <note>
                <pitch>
                    <step>C</step>
                    <octave>3</octave>
                    <alter>1</alter>
                </pitch>
                <duration>1</duration>
                <type>16th</type>
                <voice>1</voice>
            </note>
            <note>
                <pitch>
                    <step>B</step>
                    <octave>2</octave>
                </pitch>
                <duration>1</duration>
                <type>16th</type>
                <voice>1</voice>
            </note>
        </measure>
        <measure number="18">
            <note>
                <pitch>
                    <step>C</step>
                    <octave>3</octave>
                    <alter>1</alter>
                </pitch>
                <duration>2</duration>
                <type>eighth</type>
                <voice>1</voice>
            </note>
            <note>
                <pitch>
                    <step>C</step>
                    <octave>3</octave>
                    <alter>1</alter>
                </pitch>
                <duration>2</duration>
                <type>eighth</type>
                <voice>1</voice>
            </note>
            <note>
                <rest/>
                <duration>4</duration>
                <type>quarter</type>
                <voice>1</voice>
            </note>
            <note>
                <pitch>
                    <step>G</step>
                    <octave>2</octave>
                    <alter>1</alter>
                </pitch>
                <duration>2</duration>
                <type>eighth</type>
                <voice>1</voice>
            </note>
            <note>
                <pitch>
                    <step>G</step>
                    <octave>2</octave>
                    <alter>1</alter>
                </pitch>
                <duration>2</duration>
                <type>eighth</type>
                <voice>1</voice>
            </note>
            <note>
                <rest/>
                <duration>2</duration>
                <type>eighth</type>
                <voice>1</voice>
            </note>
            <note>
                <pitch>
                    <step>F</step>
                    <octave>2</octave>
                    <alter>1</alter>
                </pitch>
                <duration>2</duration>
                <type>eighth</type>
                <voice>1</voice>
                <tie type="start"/>
            </note>
        </measure>
        <measure number="19">
            <note>
                <pitch>
                    <step>F</step>
                    <octave>2</octave>
                    <alter>1</alter>
                </pitch>
                <duration>8</duration>
                <type>half</type>
                <voice>1</voice>
                <tie type="stop"/>
                <tie type="start"/>
            </note>
            <note>
                <pitch>
                    <step>F</step>
                    <octave>2</octave>
                    <alter>1</alter>
                </pitch>
                <duration>2</duration>
                <type>eighth</type>
                <voice>1</voice>
                <tie type="stop"/>
            </note>
            <note>
                <pitch>
                    <step>E</step>
                    <octave>2</octave>
                </pitch>
                <duration>2</duration>
                <type>eighth</type>
                <voice>1</voice>
            </note>
            <note>
                <pitch>
                    <step>B</step>
                    <octave>2</octave>
                </pitch>
                <duration>4</duration>
                <type>quarter</type>
                <voice>1</voice>
            </note>
        </measure>
        <measure number="20">
            <note>
                <pitch>
                    <step>C</step>
                    <octave>3</octave>
                    <alter>1</alter>
                </pitch>
                <duration>2</duration>
                <type>eighth</type>
                <voice>1</voice>
            </note>
            <note>
                <pitch>
                    <step>C</step>
                    <octave>3</octave>
                    <alter>1</alter>
                </pitch>
                <duration>2</duration>
                <type>eighth</type>
                <voice>1</voice>
            </note>
            <note>
                <rest/>
                <duration>4</duration>
                <type>quarter</type>
                <voice>1</voice>
            </note>
            <note>
                <pitch>
                    <step>G</step>
                    <octave>2</octave>
                    <alter>1</alter>
                </pitch>
                <duration>2</duration>
                <type>eighth</type>
                <voice>1</voice>
            </note>
            <note>
                <pitch>
                    <step>G</step>
                    <octave>2</octave>
                    <alter>1</alter>
                </pitch>
                <duration>2</duration>
                <type>eighth</type>
                <voice>1</voice>
            </note>
            <note>
                <rest/>
                <duration>2</duration>
                <type>eighth</type>
                <voice>1</voice>
            </note>
            <note>
                <pitch>
                    <step>A</step>
                    <octave>2</octave>
                </pitch>
                <duration>2</duration>
                <type>eighth</type>
                <voice>1</voice>
                <tie type="start"/>
            </note>
        </measure>
        <measure number="21">
            <note>
                <pitch>
                    <step>A</step>
                    <octave>2</octave>
                </pitch>
                <duration>4</duration>
                <type>quarter</type>
                <voice>1</voice>
                <tie type="stop"/>
            </note>
            <note>
                <pitch>
                    <step>A</step>
                    <octave>3</octave>
                </pitch>
                <duration>4</duration>
                <type>quarter</type>
                <voice>1</voice>
            </note>
            <note>
                <rest/>
                <duration>2</duration>
                <type>eighth</type>
                <voice>1</voice>
            </note>
            <note>
                <pitch>
                    <step>G</step>
                    <octave>3</octave>
                    <alter>1</alter>
                </pitch>
                <duration>1</duration>
                <type>16th</type>
                <voice>1</voice>
            </note>
            <note>
                <pitch>
                    <step>A</step>
                    <octave>3</octave>
                </pitch>
                <duration>1</duration>
                <type>16th</type>
                <voice>1</voice>
            </note>
            <note>
                <pitch>
                    <step>G</step>
                    <octave>3</octave>
                    <alter>1</alter>
                </pitch>
                <duration>1</duration>
                <type>16th</type>
                <voice>1</voice>
            </note>
            <note>
                <pitch>
                    <step>E</step>
                    <octave>3</octave>
                </pitch>
                <duration>1</duration>
                <type>16th</type>
                <voice>1</voice>
            </note>
            <note>
                <pitch>
                    <step>C</step>
                    <octave>3</octave>
                    <alter>1</alter>
                </pitch>
                <duration>1</duration>
                <type>16th</type>
                <voice>1</voice>
            </note>
            <note>
                <pitch>
                    <step>B</step>
                    <octave>2</octave>
                </pitch>
                <duration>1</duration>
                <type>16th</type>
                <voice>1</voice>
            </note>
        </measure>
        <measure number="22">
            <note>
                <pitch>
                    <step>C</step>
                    <octave>3</octave>
                    <alter>1</alter>
                </pitch>
                <duration>2</duration>
                <type>eighth</type>
                <voice>1</voice>
            </note>
            <note>
                <pitch>
                    <step>C</step>
                    <octave>3</octave>
                    <alter>1</alter>
                </pitch>
                <duration>2</duration>
                <type>eighth</type>
                <voice>1</voice>
            </note>
            <note>
                <rest/>
                <duration>4</duration>
                <type>quarter</type>
                <voice>1</voice>
            </note>
            <note>
                <pitch>
                    <step>G</step>
                    <octave>2</octave>
                    <alter>1</alter>
                </pitch>
                <duration>2</duration>
                <type>eighth</type>
                <voice>1</voice>
            </note>
            <note>
                <pitch>
                    <step>G</step>
                    <octave>2</octave>
                    <alter>1</alter>
                </pitch>
                <duration>2</duration>
                <type>eighth</type>
                <voice>1</voice>
            </note>
            <note>
                <rest/>
                <duration>2</duration>
                <type>eighth</type>
                <voice>1</voice>
            </note>
            <note>
                <pitch>
                    <step>F</step>
                    <octave>2</octave>
                    <alter>1</alter>
                </pitch>
                <duration>2</duration>
                <type>eighth</type>
                <voice>1</voice>
                <tie type="start"/>
            </note>
        </measure>
        <measure number="23">
            <note>
                <pitch>
                    <step>F</step>
                    <octave>2</octave>
                    <alter>1</alter>
                </pitch>
                <duration>8</duration>
                <type>half</type>
                <voice>1</voice>
                <tie type="stop"/>
                <tie type="start"/>
            </note>
            <note>
                <pitch>
                    <step>F</step>
                    <octave>2</octave>
                    <alter>1</alter>
                </pitch>
                <duration>2</duration>
                <type>eighth</type>
                <voice>1</voice>
                <tie type="stop"/>
            </note>
            <note>
                <pitch>
                    <step>E</step>
                    <octave>2</octave>
                </pitch>
                <duration>2</duration>
                <type>eighth</type>
                <voice>1</voice>
            </note>
            <note>
                <pitch>
                    <step>B</step>
                    <octave>2</octave>
                </pitch>
                <duration>4</duration>
                <type>quarter</type>
                <voice>1</voice>
            </note>
        </measure>
        <measure number="24">
            <note>
                <pitch>
                    <step>C</step>
                    <octave>3</octave>
                    <alter>1</alter>
                </pitch>
                <duration>2</duration>
                <type>eighth</type>
                <voice>1</voice>
            </note>
            <note>
                <pitch>
                    <step>C</step>
                    <octave>3</octave>
                    <alter>1</alter>
                </pitch>
                <duration>2</duration>
                <type>eighth</type>
                <voice>1</voice>
            </note>
            <note>
                <rest/>
                <duration>4</duration>
                <type>quarter</type>
                <voice>1</voice>
            </note>
            <note>
                <pitch>
                    <step>G</step>
                    <octave>2</octave>
                    <alter>1</alter>
                </pitch>
                <duration>2</duration>
                <type>eighth</type>
                <voice>1</voice>
            </note>
            <note>
                <pitch>
                    <step>G</step>
                    <octave>2</octave>
                    <alter>1</alter>
                </pitch>
                <duration>2</duration>
                <type>eighth</type>
                <voice>1</voice>
            </note>
            <note>
                <rest/>
                <duration>2</duration>
                <type>eighth</type>
                <voice>1</voice>
            </note>
            <note>
                <pitch>
                    <step>A</step>
                    <octave>2</octave>
                </pitch>
                <duration>2</duration>
                <type>eighth</type>
                <voice>1</voice>
                <tie type="start"/>
            </note>
        </measure>
        <measure number="25">
            <note>
                <pitch>
                    <step>A</step>
                    <octave>2</octave>
                </pitch>
                <duration>4</duration>
                <type>quarter</type>
                <voice>1</voice>
                <tie type="stop"/>
            </note>
            <note>
                <pitch>
                    <step>A</step>
                    <octave>3</octave>
                </pitch>
                <duration>4</duration>
                <type>quarter</type>
                <voice>1</voice>
            </note>
            <note>
                <rest/>
                <duration>2</duration>
                <type>eighth</type>
                <voice>1</voice>
            </note>
            <note>
                <pitch>
                    <step>G</step>
                    <octave>3</octave>
                    <alter>1</alter>
                </pitch>
                <duration>1</duration>
                <type>16th</type>
                <voice>1</voice>
            </note>
            <note>
                <pitch>
                    <step>A</step>
                    <octave>3</octave>
                </pitch>
                <duration>1</duration>
                <type>16th</type>
                <voice>1</voice>
            </note>
            <note>
                <pitch>
                    <step>G</step>
                    <octave>3</octave>
                    <alter>1</alter>
                </pitch>
                <duration>1</duration>
                <type>16th</type>
                <voice>1</voice>
            </note>
            <note>
                <pitch>
                    <step>E</step>
                    <octave>3</octave>
                </pitch>
                <duration>1</duration>
                <type>16th</type>
                <voice>1</voice>
            </note>
            <note>
                <pitch>
                    <step>C</step>
                    <octave>3</octave>
                    <alter>1</alter>
                </pitch>
                <duration>1</duration>
                <type>16th</type>
                <voice>1</voice>
            </note>
            <note>
                <pitch>
                    <step>B</step>
                    <octave>2</octave>
                </pitch>
                <duration>1</duration>
                <type>16th</type>
                <voice>1</voice>
            </note>
        </measure>
        <measure number="26">
            <note>
                <pitch>
                    <step>C</step>
                    <octave>3</octave>
                    <alter>1</alter>
                </pitch>
                <duration>8</duration>
                <type>half</type>
                <voice>1</voice>
            </note>
            <note>
                <pitch>
                    <step>G</step>
                    <octave>2</octave>
                    <alter>1</alter>
                </pitch>
                <duration>6</duration>
                <type>quarter</type>
                <voice>1</voice>
                <dot/>
            </note>
            <note>
                <pitch>
                    <step>F</step>
                    <octave>2</octave>
                    <alter>1</alter>
                </pitch>
                <duration>2</duration>
                <type>eighth</type>
                <voice>1</voice>
                <tie type="start"/>
            </note>
        </measure>
        <measure number="27">
            <note>
                <pitch>
                    <step>F</step>
                    <octave>2</octave>
                    <alter>1</alter>
                </pitch>
                <duration>12</duration>
                <type>half</type>
                <voice>1</voice>
                <dot/>
                <tie type="stop"/>
            </note>
            <note>
                <pitch>
                    <step>B</step>
                    <octave>2</octave>
                </pitch>
                <duration>4</duration>
                <type>quarter</type>
                <voice>1</voice>
            </note>
        </measure>
        <measure number="28">
            <note>
                <pitch>
                    <step>C</step>
                    <octave>3</octave>
                    <alter>1</alter>
                </pitch>
                <duration>8</duration>
                <type>half</type>
                <voice>1</voice>
            </note>
            <note>
                <pitch>
                    <step>G</step>
                    <octave>2</octave>
                    <alter>1</alter>
                </pitch>
                <duration>6</duration>
                <type>quarter</type>
                <voice>1</voice>
                <dot/>
            </note>
            <note>
                <pitch>
                    <step>A</step>
                    <octave>2</octave>
                </pitch>
                <duration>2</duration>
                <type>eighth</type>
                <voice>1</voice>
                <tie type="start"/>
            </note>
        </measure>
        <measure number="29">
            <note>
                <pitch>
                    <step>A</step>
                    <octave>2</octave>
                </pitch>
                <duration>12</duration>
                <type>half</type>
                <voice>1</voice>
                <dot/>
                <tie type="stop"/>
            </note>
            <note>
                <pitch>
                    <step>B</step>
                    <octave>2</octave>
                </pitch>
                <duration>4</duration>
                <type>quarter</type>
                <voice>1</voice>
            </note>
        </measure>
        <measure number="30">
            <note>
                <pitch>
                    <step>C</step>
                    <octave>3</octave>
                    <alter>1</alter>
                </pitch>
                <duration>8</duration>
                <type>half</type>
                <voice>1</voice>
            </note>
            <note>
                <pitch>
                    <step>G</step>
                    <octave>2</octave>
                    <alter>1</alter>
                </pitch>
                <duration>6</duration>
                <type>quarter</type>
                <voice>1</voice>
                <dot/>
            </note>
            <note>
                <pitch>
                    <step>F</step>
                    <octave>2</octave>
                    <alter>1</alter>
                </pitch>
                <duration>2</duration>
                <type>eighth</type>
                <voice>1</voice>
                <tie type="start"/>
            </note>
        </measure>
        <measure number="31">
            <note>
                <pitch>
                    <step>F</step>
                    <octave>2</octave>
                    <alter>1</alter>
                </pitch>
                <duration>12</duration>
                <type>half</type>
                <voice>1</voice>
                <dot/>
                <tie type="stop"/>
            </note>
            <note>
                <pitch>
                    <step>B</step>
                    <octave>2</octave>
                </pitch>
                <duration>4</duration>
                <type>quarter</type>
                <voice>1</voice>
            </note>
        </measure>
        <measure number="32">
            <note>
                <pitch>
                    <step>C</step>
                    <octave>3</octave>
                    <alter>1</alter>
                </pitch>
                <duration>8</duration>
                <type>half</type>
                <voice>1</voice>
            </note>
            <note>
                <pitch>
                    <step>G</step>
                    <octave>2</octave>
                    <alter>1</alter>
                </pitch>
                <duration>6</duration>
                <type>quarter</type>
                <voice>1</voice>
                <dot/>
            </note>
            <note>
                <pitch>
                    <step>A</step>
                    <octave>2</octave>
                </pitch>
                <duration>2</duration>
                <type>eighth</type>
                <voice>1</voice>
                <tie type="start"/>
            </note>
        </measure>
        <measure number="33">
            <note>
                <pitch>
                    <step>A</step>
                    <octave>2</octave>
                </pitch>
                <duration>12</duration>
                <type>half</type>
                <voice>1</voice>
                <dot/>
                <tie type="stop"/>
            </note>
            <note>
                <pitch>
                    <step>B</step>
                    <octave>2</octave>
                </pitch>
                <duration>4</duration>
                <type>quarter</type>
                <voice>1</voice>
            </note>
        </measure>
        <measure number="34">
            <note>
                <pitch>
                    <step>C</step>
                    <octave>3</octave>
                    <alter>1</alter>
                </pitch>
                <duration>2</duration>
                <type>eighth</type>
                <voice>1</voice>
            </note>
            <note>
                <pitch>
                    <step>C</step>
                    <octave>3</octave>
                    <alter>1</alter>
                </pitch>
                <duration>2</duration>
                <type>eighth</type>
                <voice>1</voice>
            </note>
            <note>
                <pitch>
                    <step>C</step>
                    <octave>3</octave>
                    <alter>1</alter>
                </pitch>
                <duration>2</duration>
                <type>eighth</type>
                <voice>1</voice>
            </note>
            <note>
                <pitch>
                    <step>C</step>
                    <octave>3</octave>
                    <alter>1</alter>
                </pitch>
                <duration>2</duration>
                <type>eighth</type>
                <voice>1</voice>
            </note>
            <note>
                <pitch>
                    <step>G</step>
                    <octave>2</octave>
                    <alter>1</alter>
                </pitch>
                <duration>2</duration>
                <type>eighth</type>
                <voice>1</voice>
            </note>
            <note>
                <pitch>
                    <step>G</step>
                    <octave>2</octave>
                    <alter>1</alter>
                </pitch>
                <duration>2</duration>
                <type>eighth</type>
                <voice>1</voice>
            </note>
            <note>
                <pitch>
                    <step>G</step>
                    <octave>2</octave>
                    <alter>1</alter>
                </pitch>
                <duration>2</duration>
                <type>eighth</type>
                <voice>1</voice>
            </note>
            <note>
                <pitch>
                    <step>F</step>
                    <octave>2</octave>
                    <alter>1</alter>
                </pitch>
                <duration>2</duration>
                <type>eighth</type>
                <voice>1</voice>
            </note>
        </measure>
        <measure number="35">
            <note>
                <pitch>
                    <step>F</step>
                    <octave>2</octave>
                    <alter>1</alter>
                </pitch>
                <duration>2</duration>
                <type>eighth</type>
                <voice>1</voice>
            </note>
            <note>
                <pitch>
                    <step>F</step>
                    <octave>2</octave>
                    <alter>1</alter>
                </pitch>
                <duration>2</duration>
                <type>eighth</type>
                <voice>1</voice>
            </note>
            <note>
                <pitch>
                    <step>F</step>
                    <octave>2</octave>
                    <alter>1</alter>
                </pitch>
                <duration>2</duration>
                <type>eighth</type>
                <voice>1</voice>
            </note>
            <note>
                <pitch>
                    <step>F</step>
                    <octave>2</octave>
                    <alter>1</alter>
                </pitch>
                <duration>2</duration>
                <type>eighth</type>
                <voice>1</voice>
            </note>
            <note>
                <pitch>
                    <step>F</step>
                    <octave>2</octave>
                    <alter>1</alter>
                </pitch>
                <duration>2</duration>
                <type>eighth</type>
                <voice>1</voice>
            </note>
            <note>
                <pitch>
                    <step>F</step>
                    <octave>2</octave>
                    <alter>1</alter>
                </pitch>
                <duration>2</duration>
                <type>eighth</type>
                <voice>1</voice>
            </note>
            <note>
                <pitch>
                    <step>B</step>
                    <octave>2</octave>
                </pitch>
                <duration>4</duration>
                <type>quarter</type>
                <voice>1</voice>
            </note>
        </measure>
        <measure number="36">
            <note>
                <pitch>
                    <step>C</step>
                    <octave>3</octave>
                    <alter>1</alter>
                </pitch>
                <duration>2</duration>
                <type>eighth</type>
                <voice>1</voice>
            </note>
            <note>
                <pitch>
                    <step>C</step>
                    <octave>3</octave>
                    <alter>1</alter>
                </pitch>
                <duration>2</duration>
                <type>eighth</type>
                <voice>1</voice>
            </note>
            <note>
                <pitch>
                    <step>C</step>
                    <octave>3</octave>
                    <alter>1</alter>
                </pitch>
                <duration>2</duration>
                <type>eighth</type>
                <voice>1</voice>
            </note>
            <note>
                <pitch>
                    <step>C</step>
                    <octave>3</octave>
                    <alter>1</alter>
                </pitch>
                <duration>2</duration>
                <type>eighth</type>
                <voice>1</voice>
            </note>
            <note>
                <pitch>
                    <step>G</step>
                    <octave>2</octave>
                    <alter>1</alter>
                </pitch>
                <duration>2</duration>
                <type>eighth</type>
                <voice>1</voice>
            </note>
            <note>
                <pitch>
                    <step>G</step>
                    <octave>2</octave>
                    <alter>1</alter>
                </pitch>
                <duration>2</duration>
                <type>eighth</type>
                <voice>1</voice>
            </note>
            <note>
                <pitch>
                    <step>G</step>
                    <octave>2</octave>
                    <alter>1</alter>
                </pitch>
                <duration>2</duration>
                <type>eighth</type>
                <voice>1</voice>
            </note>
            <note>
                <pitch>
                    <step>A</step>
                    <octave>2</octave>
                </pitch>
                <duration>2</duration>
                <type>eighth</type>
                <voice>1</voice>
            </note>
        </measure>
        <measure number="37">
            <note>
                <pitch>
                    <step>A</step>
                    <octave>2</octave>
                </pitch>
                <duration>2</duration>
                <type>eighth</type>
                <voice>1</voice>
            </note>
            <note>
                <pitch>
                    <step>A</step>
                    <octave>2</octave>
                </pitch>
                <duration>2</duration>
                <type>eighth</type>
                <voice>1</voice>
            </note>
            <note>
                <pitch>
                    <step>A</step>
                    <octave>2</octave>
                </pitch>
                <duration>2</duration>
                <type>eighth</type>
                <voice>1</voice>
            </note>
            <note>
                <pitch>
                    <step>A</step>
                    <octave>2</octave>
                </pitch>
                <duration>2</duration>
                <type>eighth</type>
                <voice>1</voice>
            </note>
            <note>
                <pitch>
                    <step>A</step>
                    <octave>2</octave>
                </pitch>
                <duration>2</duration>
                <type>eighth</type>
                <voice>1</voice>
            </note>
            <note>
                <pitch>
                    <step>G</step>
                    <octave>3</octave>
                    <alter>1</alter>
                </pitch>
                <duration>1</duration>
                <type>16th</type>
                <voice>1</voice>
            </note>
            <note>
                <pitch>
                    <step>A</step>
                    <octave>3</octave>
                </pitch>
                <duration>1</duration>
                <type>16th</type>
                <voice>1</voice>
            </note>
            <note>
                <pitch>
                    <step>G</step>
                    <octave>3</octave>
                    <alter>1</alter>
                </pitch>
                <duration>1</duration>
                <type>16th</type>
                <voice>1</voice>
            </note>
            <note>
                <pitch>
                    <step>E</step>
                    <octave>3</octave>
                </pitch>
                <duration>1</duration>
                <type>16th</type>
                <voice>1</voice>
            </note>
            <note>
                <pitch>
                    <step>C</step>
                    <octave>3</octave>
                    <alter>1</alter>
                </pitch>
                <duration>1</duration>
                <type>16th</type>
                <voice>1</voice>
            </note>
            <note>
                <pitch>
                    <step>B</step>
                    <octave>2</octave>
                </pitch>
                <duration>1</duration>
                <type>16th</type>
                <voice>1</voice>
            </note>
        </measure>
        <measure number="38">
            <note>
                <pitch>
                    <step>C</step>
                    <octave>3</octave>
                    <alter>1</alter>
                </pitch>
                <duration>2</duration>
                <type>eighth</type>
                <voice>1</voice>
            </note>
            <note>
                <pitch>
                    <step>C</step>
                    <octave>3</octave>
                    <alter>1</alter>
                </pitch>
                <duration>2</duration>
                <type>eighth</type>
                <voice>1</voice>
            </note>
            <note>
                <pitch>
                    <step>C</step>
                    <octave>3</octave>
                    <alter>1</alter>
                </pitch>
                <duration>2</duration>
                <type>eighth</type>
                <voice>1</voice>
            </note>
            <note>
                <pitch>
                    <step>C</step>
                    <octave>3</octave>
                    <alter>1</alter>
                </pitch>
                <duration>2</duration>
                <type>eighth</type>
                <voice>1</voice>
            </note>
            <note>
                <pitch>
                    <step>G</step>
                    <octave>2</octave>
                    <alter>1</alter>
                </pitch>
                <duration>2</duration>
                <type>eighth</type>
                <voice>1</voice>
            </note>
            <note>
                <pitch>
                    <step>G</step>
                    <octave>2</octave>
                    <alter>1</alter>
                </pitch>
                <duration>2</duration>
                <type>eighth</type>
                <voice>1</voice>
            </note>
            <note>
                <pitch>
                    <step>G</step>
                    <octave>2</octave>
                    <alter>1</alter>
                </pitch>
                <duration>2</duration>
                <type>eighth</type>
                <voice>1</voice>
            </note>
            <note>
                <pitch>
                    <step>F</step>
                    <octave>2</octave>
                    <alter>1</alter>
                </pitch>
                <duration>2</duration>
                <type>eighth</type>
                <voice>1</voice>
            </note>
        </measure>
        <measure number="39">
            <note>
                <pitch>
                    <step>F</step>
                    <octave>2</octave>
                    <alter>1</alter>
                </pitch>
                <duration>2</duration>
                <type>eighth</type>
                <voice>1</voice>
            </note>
            <note>
                <pitch>
                    <step>F</step>
                    <octave>2</octave>
                    <alter>1</alter>
                </pitch>
                <duration>2</duration>
                <type>eighth</type>
                <voice>1</voice>
            </note>
            <note>
                <pitch>
                    <step>F</step>
                    <octave>2</octave>
                    <alter>1</alter>
                </pitch>
                <duration>2</duration>
                <type>eighth</type>
                <voice>1</voice>
            </note>
            <note>
                <pitch>
                    <step>F</step>
                    <octave>2</octave>
                    <alter>1</alter>
                </pitch>
                <duration>2</duration>
                <type>eighth</type>
                <voice>1</voice>
            </note>
            <note>
                <pitch>
                    <step>F</step>
                    <octave>2</octave>
                    <alter>1</alter>
                </pitch>
                <duration>2</duration>
                <type>eighth</type>
                <voice>1</voice>
            </note>
            <note>
                <pitch>
                    <step>F</step>
                    <octave>2</octave>
                    <alter>1</alter>
                </pitch>
                <duration>2</duration>
                <type>eighth</type>
                <voice>1</voice>
            </note>
            <note>
                <pitch>
                    <step>B</step>
                    <octave>2</octave>
                </pitch>
                <duration>4</duration>
                <type>quarter</type>
                <voice>1</voice>
            </note>
        </measure>
        <measure number="40">
            <note>
                <pitch>
                    <step>C</step>
                    <octave>3</octave>
                    <alter>1</alter>
                </pitch>
                <duration>2</duration>
                <type>eighth</type>
                <voice>1</voice>
            </note>
            <note>
                <pitch>
                    <step>C</step>
                    <octave>3</octave>
                    <alter>1</alter>
                </pitch>
                <duration>2</duration>
                <type>eighth</type>
                <voice>1</voice>
            </note>
            <note>
                <pitch>
                    <step>C</step>
                    <octave>3</octave>
                    <alter>1</alter>
                </pitch>
                <duration>2</duration>
                <type>eighth</type>
                <voice>1</voice>
            </note>
            <note>
                <pitch>
                    <step>C</step>
                    <octave>3</octave>
                    <alter>1</alter>
                </pitch>
                <duration>2</duration>
                <type>eighth</type>
                <voice>1</voice>
            </note>
            <note>
                <pitch>
                    <step>G</step>
                    <octave>2</octave>
                    <alter>1</alter>
                </pitch>
                <duration>2</duration>
                <type>eighth</type>
                <voice>1</voice>
            </note>
            <note>
                <pitch>
                    <step>G</step>
                    <octave>2</octave>
                    <alter>1</alter>
                </pitch>
                <duration>2</duration>
                <type>eighth</type>
                <voice>1</voice>
            </note>
            <note>
                <pitch>
                    <step>G</step>
                    <octave>2</octave>
                    <alter>1</alter>
                </pitch>
                <duration>2</duration>
                <type>eighth</type>
                <voice>1</voice>
            </note>
            <note>
                <pitch>
                    <step>A</step>
                    <octave>2</octave>
                </pitch>
                <duration>2</duration>
                <type>eighth</type>
                <voice>1</voice>
            </note>
        </measure>
        <measure number="41">
            <note>
                <pitch>
                    <step>A</step>
                    <octave>2</octave>
                </pitch>
                <duration>2</duration>
                <type>eighth</type>
                <voice>1</voice>
            </note>
            <note>
                <pitch>
                    <step>A</step>
                    <octave>2</octave>
                </pitch>
                <duration>2</duration>
                <type>eighth</type>
                <voice>1</voice>
            </note>
            <note>
                <pitch>
                    <step>E</step>
                    <octave>3</octave>
                </pitch>
                <duration>2</duration>
                <type>eighth</type>
                <voice>1</voice>
            </note>
            <note>
                <pitch>
                    <step>A</step>
                    <octave>3</octave>
                </pitch>
                <duration>2</duration>
                <type>eighth</type>
                <voice>1</voice>
            </note>
            <note>
                <rest/>
                <duration>8</duration>
                <type>half</type>
                <voice>1</voice>
            </note>
        </measure>
        <measure number="42">
            <note>
                <pitch>
                    <step>C</step>
                    <octave>3</octave>
                    <alter>1</alter>
                </pitch>
                <duration>8</duration>
                <type>half</type>
                <voice>1</voice>
            </note>
            <note>
                <pitch>
                    <step>G</step>
                    <octave>2</octave>
                    <alter>1</alter>
                </pitch>
                <duration>8</duration>
                <type>half</type>
                <voice>1</voice>
            </note>
        </measure>
        <measure number="43">
            <note>
                <pitch>
                    <step>F</step>
                    <octave>2</octave>
                    <alter>1</alter>
                </pitch>
                <duration>12</duration>
                <type>half</type>
                <voice>1</voice>
                <dot/>
            </note>
            <note>
                <pitch>
                    <step>B</step>
                    <octave>2</octave>
                </pitch>
                <duration>4</duration>
                <type>quarter</type>
                <voice>1</voice>
            </note>
        </measure>
        <measure number="44">
            <note>
                <pitch>
                    <step>C</step>
                    <octave>3</octave>
                    <alter>1</alter>
                </pitch>
                <duration>8</duration>
                <type>half</type>
                <voice>1</voice>
            </note>
            <note>
                <pitch>
                    <step>G</step>
                    <octave>2</octave>
                    <alter>1</alter>
                </pitch>
                <duration>8</duration>
                <type>half</type>
                <voice>1</voice>
            </note>
        </measure>
        <measure number="45">
            <note>
                <pitch>
                    <step>A</step>
                    <octave>2</octave>
                </pitch>
                <duration>8</duration>
                <type>half</type>
                <voice>1</voice>
            </note>
            <note>
                <rest/>
                <duration>2</duration>
                <type>eighth</type>
                <voice>1</voice>
            </note>
            <note>
                <pitch>
                    <step>A</step>
                    <octave>2</octave>
                </pitch>
                <duration>2</duration>
                <type>eighth</type>
                <voice>1</voice>
            </note>
            <note>
                <rest/>
                <duration>1</duration>
                <type>16th</type>
                <voice>1</voice>
            </note>
            <note>
                <pitch>
                    <step>B</step>
                    <octave>2</octave>
                </pitch>
                <duration>3</duration>
                <type>eighth</type>
                <voice>1</voice>
                <dot/>
            </note>
        </measure>
        <measure number="46">
            <note>
                <pitch>
                    <step>C</step>
                    <octave>3</octave>
                    <alter>1</alter>
                </pitch>
                <duration>8</duration>
                <type>half</type>
                <voice>1</voice>
            </note>
            <note>
                <pitch>
                    <step>G</step>
                    <octave>2</octave>
                    <alter>1</alter>
                </pitch>
                <duration>8</duration>
                <type>half</type>
                <voice>1</voice>
            </note>
        </measure>
        <measure number="47">
            <note>
                <pitch>
                    <step>F</step>
                    <octave>2</octave>
                    <alter>1</alter>
                </pitch>
                <duration>12</duration>
                <type>half</type>
                <voice>1</voice>
                <dot/>
            </note>
            <note>
                <pitch>
                    <step>B</step>
                    <octave>2</octave>
                </pitch>
                <duration>4</duration>
                <type>quarter</type>
                <voice>1</voice>
            </note>
        </measure>
        <measure number="48">
            <note>
                <pitch>
                    <step>C</step>
                    <octave>3</octave>
                    <alter>1</alter>
                </pitch>
                <duration>8</duration>
                <type>half</type>
                <voice>1</voice>
            </note>
            <note>
                <pitch>
                    <step>G</step>
                    <octave>2</octave>
                    <alter>1</alter>
                </pitch>
                <duration>8</duration>
                <type>half</type>
                <voice>1</voice>
            </note>
        </measure>
        <measure number="49">
            <note>
                <pitch>
                    <step>A</step>
                    <octave>2</octave>
                </pitch>
                <duration>12</duration>
                <type>half</type>
                <voice>1</voice>
                <dot/>
            </note>
            <note>
                <pitch>
                    <step>B</step>
                    <octave>2</octave>
                </pitch>
                <duration>4</duration>
                <type>quarter</type>
                <voice>1</voice>
            </note>
        </measure>
        <measure number="50">
            <note>
                <rest/>
                <duration>16</duration>
                <type>whole</type>
                <voice>1</voice>
            </note>
        </measure>
    </part>
</score-partwise>
